<mxfile host="Electron" agent="Mozilla/5.0 (Windows NT 10.0; Win64; x64) AppleWebKit/537.36 (KHTML, like Gecko) draw.io/26.0.4 Chrome/128.0.6613.186 Electron/32.2.5 Safari/537.36" version="26.0.4">
  <diagram name="Page-1" id="2YBvvXClWsGukQMizWep">
    <mxGraphModel dx="1017" dy="757" grid="1" gridSize="10" guides="1" tooltips="1" connect="1" arrows="1" fold="1" page="1" pageScale="1" pageWidth="3300" pageHeight="4681" math="0" shadow="0">
      <root>
        <mxCell id="0" />
        <mxCell id="1" parent="0" />
        <mxCell id="Uk1BFtXwjAr-Y2J51vKg-45" style="edgeStyle=orthogonalEdgeStyle;rounded=0;orthogonalLoop=1;jettySize=auto;html=1;entryX=0.5;entryY=0;entryDx=0;entryDy=0;" edge="1" parent="1" source="Uk1BFtXwjAr-Y2J51vKg-47" target="Uk1BFtXwjAr-Y2J51vKg-50">
          <mxGeometry relative="1" as="geometry" />
        </mxCell>
        <mxCell id="Uk1BFtXwjAr-Y2J51vKg-46" style="edgeStyle=orthogonalEdgeStyle;rounded=0;orthogonalLoop=1;jettySize=auto;html=1;entryX=0.5;entryY=0;entryDx=0;entryDy=0;" edge="1" parent="1" source="Uk1BFtXwjAr-Y2J51vKg-47" target="Uk1BFtXwjAr-Y2J51vKg-52">
          <mxGeometry relative="1" as="geometry" />
        </mxCell>
        <mxCell id="Uk1BFtXwjAr-Y2J51vKg-47" value="Start Program&lt;div&gt;&lt;br&gt;&lt;/div&gt;" style="rounded=1000;whiteSpace=wrap;html=1;" vertex="1" parent="1">
          <mxGeometry x="1670" y="70" width="120" height="60" as="geometry" />
        </mxCell>
        <mxCell id="Uk1BFtXwjAr-Y2J51vKg-48" value="" style="edgeStyle=orthogonalEdgeStyle;rounded=0;orthogonalLoop=1;jettySize=auto;html=1;" edge="1" parent="1" source="Uk1BFtXwjAr-Y2J51vKg-50" target="Uk1BFtXwjAr-Y2J51vKg-66">
          <mxGeometry relative="1" as="geometry" />
        </mxCell>
        <mxCell id="Uk1BFtXwjAr-Y2J51vKg-49" value="" style="edgeStyle=orthogonalEdgeStyle;rounded=0;orthogonalLoop=1;jettySize=auto;html=1;" edge="1" parent="1" source="Uk1BFtXwjAr-Y2J51vKg-50" target="Uk1BFtXwjAr-Y2J51vKg-68">
          <mxGeometry relative="1" as="geometry" />
        </mxCell>
        <mxCell id="Uk1BFtXwjAr-Y2J51vKg-50" value="Initiate Backend&lt;div&gt;(Calculations)&lt;/div&gt;" style="rounded=0;whiteSpace=wrap;html=1;" vertex="1" parent="1">
          <mxGeometry x="1080" y="180" width="120" height="60" as="geometry" />
        </mxCell>
        <mxCell id="Uk1BFtXwjAr-Y2J51vKg-51" value="" style="edgeStyle=orthogonalEdgeStyle;rounded=0;orthogonalLoop=1;jettySize=auto;html=1;" edge="1" parent="1" source="Uk1BFtXwjAr-Y2J51vKg-52" target="Uk1BFtXwjAr-Y2J51vKg-56">
          <mxGeometry relative="1" as="geometry" />
        </mxCell>
        <mxCell id="Uk1BFtXwjAr-Y2J51vKg-52" value="Initiate Frontend&lt;div&gt;(UI)&lt;/div&gt;&lt;div&gt;&lt;br&gt;&lt;/div&gt;" style="rounded=0;whiteSpace=wrap;html=1;" vertex="1" parent="1">
          <mxGeometry x="1880" y="170" width="120" height="60" as="geometry" />
        </mxCell>
        <mxCell id="Uk1BFtXwjAr-Y2J51vKg-53" value="" style="edgeStyle=orthogonalEdgeStyle;rounded=0;orthogonalLoop=1;jettySize=auto;html=1;" edge="1" parent="1" source="Uk1BFtXwjAr-Y2J51vKg-56" target="Uk1BFtXwjAr-Y2J51vKg-59">
          <mxGeometry relative="1" as="geometry">
            <Array as="points">
              <mxPoint x="1940" y="320" />
              <mxPoint x="1850" y="320" />
            </Array>
          </mxGeometry>
        </mxCell>
        <mxCell id="Uk1BFtXwjAr-Y2J51vKg-54" value="" style="edgeStyle=orthogonalEdgeStyle;rounded=0;orthogonalLoop=1;jettySize=auto;html=1;" edge="1" parent="1" source="Uk1BFtXwjAr-Y2J51vKg-56" target="Uk1BFtXwjAr-Y2J51vKg-62">
          <mxGeometry relative="1" as="geometry" />
        </mxCell>
        <mxCell id="Uk1BFtXwjAr-Y2J51vKg-55" value="" style="edgeStyle=orthogonalEdgeStyle;rounded=0;orthogonalLoop=1;jettySize=auto;html=1;" edge="1" parent="1" source="Uk1BFtXwjAr-Y2J51vKg-56" target="Uk1BFtXwjAr-Y2J51vKg-65">
          <mxGeometry relative="1" as="geometry" />
        </mxCell>
        <mxCell id="Uk1BFtXwjAr-Y2J51vKg-56" value="Ask User what is&lt;div&gt;wanted&lt;/div&gt;" style="shape=parallelogram;perimeter=parallelogramPerimeter;whiteSpace=wrap;html=1;fixedSize=1;rounded=0;" vertex="1" parent="1">
          <mxGeometry x="1880" y="250" width="120" height="60" as="geometry" />
        </mxCell>
        <mxCell id="Uk1BFtXwjAr-Y2J51vKg-57" value="" style="edgeStyle=orthogonalEdgeStyle;rounded=0;orthogonalLoop=1;jettySize=auto;html=1;" edge="1" parent="1" source="Uk1BFtXwjAr-Y2J51vKg-59" target="Uk1BFtXwjAr-Y2J51vKg-68">
          <mxGeometry relative="1" as="geometry" />
        </mxCell>
        <mxCell id="Uk1BFtXwjAr-Y2J51vKg-58" style="edgeStyle=orthogonalEdgeStyle;rounded=0;orthogonalLoop=1;jettySize=auto;html=1;entryX=0.5;entryY=0;entryDx=0;entryDy=0;" edge="1" parent="1" source="Uk1BFtXwjAr-Y2J51vKg-59" target="Uk1BFtXwjAr-Y2J51vKg-69">
          <mxGeometry relative="1" as="geometry">
            <mxPoint x="1919.9999999999998" y="520" as="targetPoint" />
            <Array as="points">
              <mxPoint x="1950" y="350" />
            </Array>
          </mxGeometry>
        </mxCell>
        <mxCell id="Uk1BFtXwjAr-Y2J51vKg-59" value="Read&lt;div&gt;Saved&lt;/div&gt;&lt;div&gt;Game&lt;/div&gt;" style="whiteSpace=wrap;html=1;rounded=0;" vertex="1" parent="1">
          <mxGeometry x="1810" y="330" width="80" height="40" as="geometry" />
        </mxCell>
        <mxCell id="Uk1BFtXwjAr-Y2J51vKg-60" style="edgeStyle=orthogonalEdgeStyle;rounded=0;orthogonalLoop=1;jettySize=auto;html=1;entryX=1;entryY=0.5;entryDx=0;entryDy=0;" edge="1" parent="1" source="Uk1BFtXwjAr-Y2J51vKg-62" target="Uk1BFtXwjAr-Y2J51vKg-66">
          <mxGeometry relative="1" as="geometry">
            <Array as="points">
              <mxPoint x="2085" y="430" />
              <mxPoint x="1200" y="430" />
            </Array>
          </mxGeometry>
        </mxCell>
        <mxCell id="Uk1BFtXwjAr-Y2J51vKg-61" style="edgeStyle=orthogonalEdgeStyle;rounded=0;orthogonalLoop=1;jettySize=auto;html=1;entryX=0.75;entryY=0;entryDx=0;entryDy=0;" edge="1" parent="1" source="Uk1BFtXwjAr-Y2J51vKg-62" target="Uk1BFtXwjAr-Y2J51vKg-69">
          <mxGeometry relative="1" as="geometry">
            <mxPoint x="1960.0000000000002" y="560" as="targetPoint" />
          </mxGeometry>
        </mxCell>
        <mxCell id="Uk1BFtXwjAr-Y2J51vKg-62" value="Start&lt;div&gt;New Game&lt;/div&gt;" style="whiteSpace=wrap;html=1;rounded=0;" vertex="1" parent="1">
          <mxGeometry x="2050" y="320" width="70" height="40" as="geometry" />
        </mxCell>
        <mxCell id="Uk1BFtXwjAr-Y2J51vKg-63" style="edgeStyle=orthogonalEdgeStyle;rounded=0;orthogonalLoop=1;jettySize=auto;html=1;entryX=1;entryY=0.5;entryDx=0;entryDy=0;" edge="1" parent="1" source="Uk1BFtXwjAr-Y2J51vKg-65" target="Uk1BFtXwjAr-Y2J51vKg-68">
          <mxGeometry relative="1" as="geometry">
            <Array as="points">
              <mxPoint x="1795" y="270" />
            </Array>
          </mxGeometry>
        </mxCell>
        <mxCell id="Uk1BFtXwjAr-Y2J51vKg-64" style="edgeStyle=orthogonalEdgeStyle;rounded=0;orthogonalLoop=1;jettySize=auto;html=1;entryX=0;entryY=0.25;entryDx=0;entryDy=0;" edge="1" parent="1" source="Uk1BFtXwjAr-Y2J51vKg-65" target="Uk1BFtXwjAr-Y2J51vKg-69">
          <mxGeometry relative="1" as="geometry">
            <mxPoint x="1920" y="550" as="targetPoint" />
            <Array as="points">
              <mxPoint x="1795" y="430" />
              <mxPoint x="1796" y="608" />
            </Array>
          </mxGeometry>
        </mxCell>
        <mxCell id="Uk1BFtXwjAr-Y2J51vKg-65" value="Resume&lt;div&gt;Last Game&lt;/div&gt;" style="whiteSpace=wrap;html=1;rounded=0;" vertex="1" parent="1">
          <mxGeometry x="1770" y="260" width="70" height="40" as="geometry" />
        </mxCell>
        <mxCell id="Uk1BFtXwjAr-Y2J51vKg-66" value="Initiate Board" style="whiteSpace=wrap;html=1;rounded=0;" vertex="1" parent="1">
          <mxGeometry x="1080" y="390" width="120" height="60" as="geometry" />
        </mxCell>
        <mxCell id="Uk1BFtXwjAr-Y2J51vKg-67" style="edgeStyle=orthogonalEdgeStyle;rounded=0;orthogonalLoop=1;jettySize=auto;html=1;" edge="1" parent="1" source="Uk1BFtXwjAr-Y2J51vKg-68" target="Uk1BFtXwjAr-Y2J51vKg-66">
          <mxGeometry relative="1" as="geometry">
            <Array as="points">
              <mxPoint x="1170" y="290" />
            </Array>
          </mxGeometry>
        </mxCell>
        <mxCell id="Uk1BFtXwjAr-Y2J51vKg-68" value="Read Parameters&lt;div&gt;Of Saved Game&lt;/div&gt;" style="whiteSpace=wrap;html=1;rounded=0;" vertex="1" parent="1">
          <mxGeometry x="1240" y="260" width="120" height="60" as="geometry" />
        </mxCell>
        <mxCell id="Uk1BFtXwjAr-Y2J51vKg-78" style="edgeStyle=orthogonalEdgeStyle;rounded=0;orthogonalLoop=1;jettySize=auto;html=1;entryX=0.5;entryY=0;entryDx=0;entryDy=0;" edge="1" parent="1" source="Uk1BFtXwjAr-Y2J51vKg-69" target="Uk1BFtXwjAr-Y2J51vKg-77">
          <mxGeometry relative="1" as="geometry" />
        </mxCell>
        <mxCell id="Uk1BFtXwjAr-Y2J51vKg-80" style="edgeStyle=orthogonalEdgeStyle;rounded=0;orthogonalLoop=1;jettySize=auto;html=1;entryX=0.5;entryY=0;entryDx=0;entryDy=0;" edge="1" parent="1" source="Uk1BFtXwjAr-Y2J51vKg-69" target="Uk1BFtXwjAr-Y2J51vKg-79">
          <mxGeometry relative="1" as="geometry" />
        </mxCell>
        <mxCell id="Uk1BFtXwjAr-Y2J51vKg-87" style="edgeStyle=orthogonalEdgeStyle;rounded=0;orthogonalLoop=1;jettySize=auto;html=1;entryX=1;entryY=0.5;entryDx=0;entryDy=0;" edge="1" parent="1" source="Uk1BFtXwjAr-Y2J51vKg-69" target="Uk1BFtXwjAr-Y2J51vKg-73">
          <mxGeometry relative="1" as="geometry" />
        </mxCell>
        <mxCell id="Uk1BFtXwjAr-Y2J51vKg-88" style="edgeStyle=orthogonalEdgeStyle;rounded=0;orthogonalLoop=1;jettySize=auto;html=1;entryX=1;entryY=0.5;entryDx=0;entryDy=0;" edge="1" parent="1" source="Uk1BFtXwjAr-Y2J51vKg-69" target="Uk1BFtXwjAr-Y2J51vKg-75">
          <mxGeometry relative="1" as="geometry" />
        </mxCell>
        <mxCell id="Uk1BFtXwjAr-Y2J51vKg-89" style="edgeStyle=orthogonalEdgeStyle;rounded=0;orthogonalLoop=1;jettySize=auto;html=1;entryX=1;entryY=0.5;entryDx=0;entryDy=0;" edge="1" parent="1" source="Uk1BFtXwjAr-Y2J51vKg-69" target="Uk1BFtXwjAr-Y2J51vKg-71">
          <mxGeometry relative="1" as="geometry" />
        </mxCell>
        <mxCell id="Uk1BFtXwjAr-Y2J51vKg-69" value="Get Action" style="shape=parallelogram;perimeter=parallelogramPerimeter;whiteSpace=wrap;html=1;fixedSize=1;" vertex="1" parent="1">
          <mxGeometry x="1890" y="470" width="120" height="60" as="geometry" />
        </mxCell>
        <mxCell id="Uk1BFtXwjAr-Y2J51vKg-101" style="edgeStyle=orthogonalEdgeStyle;rounded=0;orthogonalLoop=1;jettySize=auto;html=1;entryX=1;entryY=0.5;entryDx=0;entryDy=0;" edge="1" parent="1" source="Uk1BFtXwjAr-Y2J51vKg-71" target="Uk1BFtXwjAr-Y2J51vKg-100">
          <mxGeometry relative="1" as="geometry">
            <Array as="points" />
          </mxGeometry>
        </mxCell>
        <mxCell id="Uk1BFtXwjAr-Y2J51vKg-71" value="Place Stone" style="rounded=0;whiteSpace=wrap;html=1;" vertex="1" parent="1">
          <mxGeometry x="1650" y="650" width="120" height="60" as="geometry" />
        </mxCell>
        <mxCell id="Uk1BFtXwjAr-Y2J51vKg-96" style="edgeStyle=orthogonalEdgeStyle;rounded=0;orthogonalLoop=1;jettySize=auto;html=1;" edge="1" parent="1" source="Uk1BFtXwjAr-Y2J51vKg-75" target="Uk1BFtXwjAr-Y2J51vKg-90">
          <mxGeometry relative="1" as="geometry" />
        </mxCell>
        <mxCell id="Uk1BFtXwjAr-Y2J51vKg-75" value="Get Hint" style="rounded=0;whiteSpace=wrap;html=1;" vertex="1" parent="1">
          <mxGeometry x="1650" y="580" width="120" height="60" as="geometry" />
        </mxCell>
        <mxCell id="Uk1BFtXwjAr-Y2J51vKg-77" value="Resign" style="rounded=0;whiteSpace=wrap;html=1;" vertex="1" parent="1">
          <mxGeometry x="2240" y="600" width="120" height="60" as="geometry" />
        </mxCell>
        <mxCell id="Uk1BFtXwjAr-Y2J51vKg-83" style="edgeStyle=orthogonalEdgeStyle;rounded=0;orthogonalLoop=1;jettySize=auto;html=1;entryX=0.963;entryY=0.144;entryDx=0;entryDy=0;fillColor=#f8cecc;strokeColor=#b85450;entryPerimeter=0;exitX=0.652;exitY=0.016;exitDx=0;exitDy=0;exitPerimeter=0;" edge="1" parent="1" source="Uk1BFtXwjAr-Y2J51vKg-79" target="Uk1BFtXwjAr-Y2J51vKg-56">
          <mxGeometry relative="1" as="geometry">
            <mxPoint x="1999.9999999999995" y="260" as="targetPoint" />
            <mxPoint x="2190" y="580" as="sourcePoint" />
            <Array as="points">
              <mxPoint x="2188" y="570" />
              <mxPoint x="2220" y="570" />
              <mxPoint x="2220" y="260" />
              <mxPoint x="1996" y="260" />
            </Array>
          </mxGeometry>
        </mxCell>
        <mxCell id="Uk1BFtXwjAr-Y2J51vKg-79" value="Main menu" style="rounded=0;whiteSpace=wrap;html=1;" vertex="1" parent="1">
          <mxGeometry x="2110" y="600" width="120" height="60" as="geometry" />
        </mxCell>
        <mxCell id="Uk1BFtXwjAr-Y2J51vKg-103" style="edgeStyle=orthogonalEdgeStyle;rounded=0;orthogonalLoop=1;jettySize=auto;html=1;exitX=0.5;exitY=0;exitDx=0;exitDy=0;" edge="1" parent="1" source="Uk1BFtXwjAr-Y2J51vKg-81">
          <mxGeometry relative="1" as="geometry">
            <mxPoint x="2429.6470588235293" y="600.1176470588236" as="targetPoint" />
          </mxGeometry>
        </mxCell>
        <mxCell id="Uk1BFtXwjAr-Y2J51vKg-106" style="edgeStyle=orthogonalEdgeStyle;rounded=0;orthogonalLoop=1;jettySize=auto;html=1;entryX=1;entryY=0.25;entryDx=0;entryDy=0;fillColor=#f8cecc;strokeColor=#b85450;" edge="1" parent="1" source="Uk1BFtXwjAr-Y2J51vKg-81" target="Uk1BFtXwjAr-Y2J51vKg-69">
          <mxGeometry relative="1" as="geometry">
            <mxPoint x="2529.9999999999995" y="460" as="targetPoint" />
            <Array as="points">
              <mxPoint x="2460" y="486" />
            </Array>
          </mxGeometry>
        </mxCell>
        <mxCell id="Uk1BFtXwjAr-Y2J51vKg-81" value="New Game" style="rounded=0;whiteSpace=wrap;html=1;" vertex="1" parent="1">
          <mxGeometry x="2370" y="600" width="120" height="60" as="geometry" />
        </mxCell>
        <mxCell id="Uk1BFtXwjAr-Y2J51vKg-82" style="edgeStyle=orthogonalEdgeStyle;rounded=0;orthogonalLoop=1;jettySize=auto;html=1;entryX=0.5;entryY=0;entryDx=0;entryDy=0;" edge="1" parent="1" source="Uk1BFtXwjAr-Y2J51vKg-69" target="Uk1BFtXwjAr-Y2J51vKg-81">
          <mxGeometry relative="1" as="geometry">
            <mxPoint x="2420" y="450" as="targetPoint" />
          </mxGeometry>
        </mxCell>
        <mxCell id="Uk1BFtXwjAr-Y2J51vKg-99" style="edgeStyle=orthogonalEdgeStyle;rounded=0;orthogonalLoop=1;jettySize=auto;html=1;entryX=1;entryY=0.5;entryDx=0;entryDy=0;" edge="1" parent="1" source="Uk1BFtXwjAr-Y2J51vKg-73" target="Uk1BFtXwjAr-Y2J51vKg-98">
          <mxGeometry relative="1" as="geometry" />
        </mxCell>
        <mxCell id="Uk1BFtXwjAr-Y2J51vKg-73" value="Take back" style="rounded=0;whiteSpace=wrap;html=1;" vertex="1" parent="1">
          <mxGeometry x="1650" y="510" width="120" height="60" as="geometry" />
        </mxCell>
        <mxCell id="Uk1BFtXwjAr-Y2J51vKg-130" style="edgeStyle=orthogonalEdgeStyle;rounded=0;orthogonalLoop=1;jettySize=auto;html=1;entryX=0.5;entryY=0;entryDx=0;entryDy=0;" edge="1" parent="1" source="Uk1BFtXwjAr-Y2J51vKg-90" target="Uk1BFtXwjAr-Y2J51vKg-110">
          <mxGeometry relative="1" as="geometry" />
        </mxCell>
        <mxCell id="Uk1BFtXwjAr-Y2J51vKg-90" value="Hint()" style="rounded=0;whiteSpace=wrap;html=1;" vertex="1" parent="1">
          <mxGeometry x="1280" y="580" width="120" height="60" as="geometry" />
        </mxCell>
        <mxCell id="Uk1BFtXwjAr-Y2J51vKg-93" value="" style="endArrow=none;dashed=1;html=1;rounded=0;jumpSize=12;strokeWidth=6;" edge="1" parent="1">
          <mxGeometry width="50" height="50" relative="1" as="geometry">
            <mxPoint x="1570" y="4599" as="sourcePoint" />
            <mxPoint x="1570" y="10" as="targetPoint" />
          </mxGeometry>
        </mxCell>
        <mxCell id="Uk1BFtXwjAr-Y2J51vKg-102" style="edgeStyle=orthogonalEdgeStyle;rounded=0;orthogonalLoop=1;jettySize=auto;html=1;entryX=0.5;entryY=0;entryDx=0;entryDy=0;fillColor=#f8cecc;strokeColor=#b85450;" edge="1" parent="1" source="Uk1BFtXwjAr-Y2J51vKg-98" target="Uk1BFtXwjAr-Y2J51vKg-56">
          <mxGeometry relative="1" as="geometry">
            <mxPoint x="1540" y="240" as="targetPoint" />
            <Array as="points">
              <mxPoint x="1340" y="500" />
              <mxPoint x="1480" y="500" />
              <mxPoint x="1480" y="240" />
              <mxPoint x="1940" y="240" />
            </Array>
          </mxGeometry>
        </mxCell>
        <mxCell id="Uk1BFtXwjAr-Y2J51vKg-98" value="Undo()" style="rounded=0;whiteSpace=wrap;html=1;" vertex="1" parent="1">
          <mxGeometry x="1280" y="510" width="120" height="60" as="geometry" />
        </mxCell>
        <mxCell id="Uk1BFtXwjAr-Y2J51vKg-128" style="edgeStyle=orthogonalEdgeStyle;rounded=0;orthogonalLoop=1;jettySize=auto;html=1;entryX=0.5;entryY=0;entryDx=0;entryDy=0;" edge="1" parent="1" source="Uk1BFtXwjAr-Y2J51vKg-100" target="Uk1BFtXwjAr-Y2J51vKg-124">
          <mxGeometry relative="1" as="geometry">
            <Array as="points">
              <mxPoint x="1340" y="860" />
              <mxPoint x="1185" y="860" />
            </Array>
          </mxGeometry>
        </mxCell>
        <mxCell id="Uk1BFtXwjAr-Y2J51vKg-100" value="Place()" style="rounded=0;whiteSpace=wrap;html=1;" vertex="1" parent="1">
          <mxGeometry x="1280" y="650" width="120" height="60" as="geometry" />
        </mxCell>
        <mxCell id="Uk1BFtXwjAr-Y2J51vKg-144" value="" style="edgeStyle=orthogonalEdgeStyle;rounded=0;orthogonalLoop=1;jettySize=auto;html=1;" edge="1" parent="1" source="Uk1BFtXwjAr-Y2J51vKg-108" target="Uk1BFtXwjAr-Y2J51vKg-143">
          <mxGeometry relative="1" as="geometry" />
        </mxCell>
        <mxCell id="Uk1BFtXwjAr-Y2J51vKg-108" value="Renew Board" style="whiteSpace=wrap;html=1;rounded=0;" vertex="1" parent="1">
          <mxGeometry x="1310" y="990" width="120" height="60" as="geometry" />
        </mxCell>
        <mxCell id="Uk1BFtXwjAr-Y2J51vKg-127" style="edgeStyle=orthogonalEdgeStyle;rounded=0;orthogonalLoop=1;jettySize=auto;html=1;entryX=0.5;entryY=0;entryDx=0;entryDy=0;fillColor=#dae8fc;strokeColor=#6c8ebf;" edge="1" parent="1" source="Uk1BFtXwjAr-Y2J51vKg-110" target="Uk1BFtXwjAr-Y2J51vKg-124">
          <mxGeometry relative="1" as="geometry">
            <Array as="points">
              <mxPoint x="1000" y="860" />
              <mxPoint x="1185" y="860" />
            </Array>
          </mxGeometry>
        </mxCell>
        <mxCell id="Uk1BFtXwjAr-Y2J51vKg-110" value="Run Markov&lt;div&gt;Chain Search&lt;/div&gt;" style="whiteSpace=wrap;html=1;rounded=0;fillColor=#f8cecc;strokeColor=#b85450;" vertex="1" parent="1">
          <mxGeometry x="540" y="770" width="120" height="60" as="geometry" />
        </mxCell>
        <mxCell id="Uk1BFtXwjAr-Y2J51vKg-113" value="Must Mark this is for client" style="text;strokeColor=none;fillColor=none;align=left;verticalAlign=middle;spacingLeft=4;spacingRight=4;overflow=hidden;points=[[0,0.5],[1,0.5]];portConstraint=eastwest;rotatable=0;whiteSpace=wrap;html=1;" vertex="1" parent="1">
          <mxGeometry x="1040" y="570" width="160" height="30" as="geometry" />
        </mxCell>
        <mxCell id="Uk1BFtXwjAr-Y2J51vKg-117" value="Renew Board&lt;div&gt;Doagram&lt;/div&gt;" style="whiteSpace=wrap;html=1;rounded=0;" vertex="1" parent="1">
          <mxGeometry x="1900" y="810" width="120" height="60" as="geometry" />
        </mxCell>
        <mxCell id="Uk1BFtXwjAr-Y2J51vKg-121" style="edgeStyle=orthogonalEdgeStyle;rounded=0;orthogonalLoop=1;jettySize=auto;html=1;entryX=0.571;entryY=1.011;entryDx=0;entryDy=0;entryPerimeter=0;" edge="1" parent="1" source="Uk1BFtXwjAr-Y2J51vKg-117" target="Uk1BFtXwjAr-Y2J51vKg-69">
          <mxGeometry relative="1" as="geometry" />
        </mxCell>
        <mxCell id="Uk1BFtXwjAr-Y2J51vKg-132" style="edgeStyle=orthogonalEdgeStyle;rounded=0;orthogonalLoop=1;jettySize=auto;html=1;entryX=0.5;entryY=0;entryDx=0;entryDy=0;fillColor=#dae8fc;strokeColor=#6c8ebf;" edge="1" parent="1" source="Uk1BFtXwjAr-Y2J51vKg-124" target="Uk1BFtXwjAr-Y2J51vKg-108">
          <mxGeometry relative="1" as="geometry" />
        </mxCell>
        <mxCell id="Uk1BFtXwjAr-Y2J51vKg-140" style="edgeStyle=orthogonalEdgeStyle;rounded=0;orthogonalLoop=1;jettySize=auto;html=1;entryX=0;entryY=0.5;entryDx=0;entryDy=0;" edge="1" parent="1" source="Uk1BFtXwjAr-Y2J51vKg-124" target="Uk1BFtXwjAr-Y2J51vKg-100">
          <mxGeometry relative="1" as="geometry">
            <mxPoint x="1185" y="680" as="targetPoint" />
            <Array as="points">
              <mxPoint x="1260" y="810" />
              <mxPoint x="1260" y="680" />
            </Array>
          </mxGeometry>
        </mxCell>
        <mxCell id="Uk1BFtXwjAr-Y2J51vKg-124" value="Is the move legit?" style="rhombus;whiteSpace=wrap;html=1;rounded=0;" vertex="1" parent="1">
          <mxGeometry x="1110" y="910" width="150" height="50" as="geometry" />
        </mxCell>
        <mxCell id="Uk1BFtXwjAr-Y2J51vKg-131" style="edgeStyle=orthogonalEdgeStyle;rounded=0;orthogonalLoop=1;jettySize=auto;html=1;entryX=0.104;entryY=1.043;entryDx=0;entryDy=0;entryPerimeter=0;" edge="1" parent="1" source="Uk1BFtXwjAr-Y2J51vKg-124" target="Uk1BFtXwjAr-Y2J51vKg-110">
          <mxGeometry relative="1" as="geometry">
            <Array as="points">
              <mxPoint x="553" y="935" />
            </Array>
          </mxGeometry>
        </mxCell>
        <mxCell id="Uk1BFtXwjAr-Y2J51vKg-135" value="" style="endArrow=classic;html=1;rounded=0;entryX=0;entryY=0.5;entryDx=0;entryDy=0;exitX=0;exitY=0.5;exitDx=0;exitDy=0;" edge="1" parent="1" source="Uk1BFtXwjAr-Y2J51vKg-124" target="Uk1BFtXwjAr-Y2J51vKg-108">
          <mxGeometry width="50" height="50" relative="1" as="geometry">
            <mxPoint x="950" y="930" as="sourcePoint" />
            <mxPoint x="1260" y="900" as="targetPoint" />
            <Array as="points">
              <mxPoint x="950" y="935" />
              <mxPoint x="950" y="1020" />
            </Array>
          </mxGeometry>
        </mxCell>
        <mxCell id="Uk1BFtXwjAr-Y2J51vKg-136" value="Yes" style="text;html=1;align=center;verticalAlign=middle;whiteSpace=wrap;rounded=0;" vertex="1" parent="1">
          <mxGeometry x="1000" y="900" width="60" height="30" as="geometry" />
        </mxCell>
        <mxCell id="Uk1BFtXwjAr-Y2J51vKg-137" value="Yes" style="text;html=1;align=center;verticalAlign=middle;whiteSpace=wrap;rounded=0;fillColor=#dae8fc;strokeColor=#6c8ebf;" vertex="1" parent="1">
          <mxGeometry x="1280" y="900" width="60" height="30" as="geometry" />
        </mxCell>
        <mxCell id="Uk1BFtXwjAr-Y2J51vKg-141" value="If No:&lt;div&gt;Tell Place function Things have went wrong&lt;/div&gt;" style="text;html=1;align=center;verticalAlign=middle;whiteSpace=wrap;rounded=0;" vertex="1" parent="1">
          <mxGeometry x="1200" y="690" width="60" height="110" as="geometry" />
        </mxCell>
        <mxCell id="Uk1BFtXwjAr-Y2J51vKg-142" value="" style="endArrow=none;dashed=1;html=1;rounded=0;strokeWidth=6;" edge="1" parent="1">
          <mxGeometry width="50" height="50" relative="1" as="geometry">
            <mxPoint x="880" y="3510" as="sourcePoint" />
            <mxPoint x="880" y="10" as="targetPoint" />
          </mxGeometry>
        </mxCell>
        <mxCell id="Uk1BFtXwjAr-Y2J51vKg-143" value="Has Anyone Won?" style="rhombus;whiteSpace=wrap;html=1;rounded=0;fillColor=#d5e8d4;strokeColor=#82b366;" vertex="1" parent="1">
          <mxGeometry x="1330" y="1120" width="170" height="80" as="geometry" />
        </mxCell>
      </root>
    </mxGraphModel>
  </diagram>
</mxfile>
